<svg xmlns="http://www.w3.org/2000/svg" xmlns:xlink="http://www.w3.org/1999/xlink" viewBox="0 0 288.76 277.77"><defs><style>.cls-1,.cls-14{fill:none;}.cls-2,.cls-5{fill:#3e98f7;}.cls-2{opacity:0.5;}.cls-12,.cls-2{isolation:isolate;}.cls-3{clip-path:url(#clip-path);}.cls-4{fill:url(#linear-gradient);}.cls-6{fill:url(#linear-gradient-2);}.cls-7{fill:url(#linear-gradient-3);}.cls-8{fill:url(#linear-gradient-4);}.cls-9{fill:#fff;}.cls-10{fill:url(#linear-gradient-5);}.cls-11{fill:url(#linear-gradient-6);}.cls-12{opacity:0.35;fill:url(#linear-gradient-7);}.cls-13{fill:url(#linear-gradient-8);}.cls-14{stroke:#bad3f5;stroke-width:0.44px;}.cls-15{fill:#3e8eed;}.cls-16{clip-path:url(#clip-path-2);}.cls-17{clip-path:url(#clip-path-3);}.cls-18{clip-path:url(#clip-path-4);}.cls-19{clip-path:url(#clip-path-5);}.cls-20{clip-path:url(#clip-path-6);}.cls-21{clip-path:url(#clip-path-7);}</style><clipPath id="clip-path"><rect class="cls-1" x="104.6" y="97.57" width="78.65" height="79.55"/></clipPath><linearGradient id="linear-gradient" x1="178.16" y1="177.21" x2="109.69" y2="138.09" gradientTransform="matrix(1, 0, 0, -1, 0, 295)" gradientUnits="userSpaceOnUse"><stop offset="0" stop-color="#808285"/><stop offset="0.55" stop-color="#4d4c4e"/><stop offset="1" stop-color="#231f20"/></linearGradient><linearGradient id="linear-gradient-2" x1="83.99" y1="143.76" x2="147.85" y2="143.76" gradientTransform="matrix(1, 0, 0, -1, 0, 295)" gradientUnits="userSpaceOnUse"><stop offset="0.27" stop-color="#f1f2f2"/><stop offset="0.35" stop-color="#edf0f2"/><stop offset="0.42" stop-color="#e1eaf2"/><stop offset="0.5" stop-color="#cee0f3"/><stop offset="0.57" stop-color="#b2d2f4"/><stop offset="0.65" stop-color="#8ec0f5"/><stop offset="0.72" stop-color="#64abf6"/><stop offset="0.78" stop-color="#3e98f7"/></linearGradient><linearGradient id="linear-gradient-3" x1="153.31" y1="179.2" x2="151.32" y2="190.35" gradientTransform="matrix(1, 0, 0, -1, 0, 295)" gradientUnits="userSpaceOnUse"><stop offset="0.3" stop-color="#f1f2f2"/><stop offset="0.38" stop-color="#eaeef2"/><stop offset="0.49" stop-color="#d6e4f3"/><stop offset="0.63" stop-color="#b5d4f4"/><stop offset="0.79" stop-color="#87bdf5"/><stop offset="0.96" stop-color="#4da0f7"/><stop offset="1" stop-color="#3e98f7"/></linearGradient><linearGradient id="linear-gradient-4" x1="160.46" y1="172.92" x2="124.36" y2="172.92" gradientTransform="matrix(1, 0, 0, -1, 0, 295)" gradientUnits="userSpaceOnUse"><stop offset="0" stop-color="#f1f2f2"/><stop offset="1" stop-color="#3e98f7"/></linearGradient><linearGradient id="linear-gradient-5" x1="176.87" y1="161.87" x2="167.6" y2="145.99" gradientTransform="matrix(1, 0, 0, -1, 0, 295)" gradientUnits="userSpaceOnUse"><stop offset="0" stop-color="#f1f2f2"/><stop offset="0.14" stop-color="#edf0f2"/><stop offset="0.29" stop-color="#dfe9f2"/><stop offset="0.44" stop-color="#c9def3"/><stop offset="0.6" stop-color="#aacff4"/><stop offset="0.77" stop-color="#83bbf5"/><stop offset="0.93" stop-color="#53a3f6"/><stop offset="1" stop-color="#3e98f7"/></linearGradient><linearGradient id="linear-gradient-6" x1="159.53" y1="176.1" x2="103.96" y2="121.09" gradientTransform="matrix(1, 0, 0, -1, 0, 295)" gradientUnits="userSpaceOnUse"><stop offset="0.11" stop-color="#f1f2f2"/><stop offset="0.21" stop-color="#e8eef2"/><stop offset="0.36" stop-color="#d1e2f3"/><stop offset="0.56" stop-color="#aacef4"/><stop offset="0.79" stop-color="#75b4f5"/><stop offset="1" stop-color="#3e98f7"/></linearGradient><linearGradient id="linear-gradient-7" x1="157.43" y1="147.71" x2="170.6" y2="147.71" xlink:href="#linear-gradient-4"/><linearGradient id="linear-gradient-8" x1="116.99" y1="178.18" x2="149.69" y2="178.18" xlink:href="#linear-gradient-4"/><clipPath id="clip-path-2"><rect class="cls-1" x="268.98" y="91.42" width="14.5" height="14.5"/></clipPath><clipPath id="clip-path-3"><rect class="cls-1" x="3.96" y="170.97" width="7.91" height="6.92"/></clipPath><clipPath id="clip-path-4"><rect class="cls-1" x="57.58" y="98.89" width="12.31" height="12.95"/></clipPath><clipPath id="clip-path-5"><rect class="cls-1" x="14.94" y="59.77" width="12.75" height="12.75"/></clipPath><clipPath id="clip-path-6"><rect class="cls-1" x="200.42" y="225.91" width="10.11" height="13.62"/></clipPath><clipPath id="clip-path-7"><rect class="cls-1" x="262.39" y="196.9" width="7.91" height="7.91"/></clipPath></defs><g id="Layer_2" data-name="Layer 2"><g id="Layer_1-2" data-name="Layer 1"><path class="cls-2" d="M142.4,195.14a58,58,0,1,0-58-58A58,58,0,0,0,142.4,195.14Z"/><path class="cls-2" d="M143.75,188a50.69,50.69,0,1,0-50.69-50.69A50.7,50.7,0,0,0,143.75,188Z"/><g class="cls-3"><path class="cls-4" d="M143.93,177.08a39.73,39.73,0,1,0-39.33-39.73A39.53,39.53,0,0,0,143.93,177.08Z"/><path class="cls-5" d="M143.93,177.08a39.73,39.73,0,1,0-39.33-39.73A39.53,39.53,0,0,0,143.93,177.08Z"/><path class="cls-6" d="M132,129.12s-10.38-4.36-14.72.29.77,24.91,12.21,31.6,26.24,14.21,26.24,14.21-6.68-26-3.14-36.63S132,129.12,132,129.12Z"/><path class="cls-7" d="M154.8,111.2a36.82,36.82,0,0,0-4.92-1.6l.9-1.45,0,0A10.63,10.63,0,0,1,154.8,111.2Z"/><path class="cls-8" d="M143.69,118.77a17.7,17.7,0,0,1,7-.52c7.1,1.52,7.41,7.79,7.41,7.79-3.57-7.36-12.87-5.34-12.87-5.34Z"/><path class="cls-9" d="M121.27,130.33s.16,5.33,1.54,6.74c0,0,1.48-3.16,6.72-5.32,0,0-3.84,10.64-1,18.51,0,0-4.27-2.54-3.26-12.92a12.85,12.85,0,0,0-2.44,5.43S118.7,136.94,121.27,130.33Z"/><path class="cls-10" d="M176.08,133.29h0c.8,5.61-2.09,7.15-3,7.5C171.52,136.36,175.16,133.85,176.08,133.29Z"/><path class="cls-9" d="M155.77,175.22Z"/><path class="cls-9" d="M149.16,170.62a15.67,15.67,0,0,1-1.1-1.64,13.2,13.2,0,0,1-.92-1.88h0v0h0a9.2,9.2,0,0,1-.38-1.28l.2.09a11.69,11.69,0,0,0,5.06.67l-.46-.4a10,10,0,0,1-3.66-7.5,12.94,12.94,0,0,1,1.86-6.4,16.37,16.37,0,0,1,1.85-2.63c-7.35,5.23-4.85,13.72-4.85,13.72a16.87,16.87,0,0,1-3.52-1.25c1.6,11.5,9.4,13,12.39,13.12h.15A11.57,11.57,0,0,1,149.16,170.62Z"/><path class="cls-11" d="M166,129.68a1.43,1.43,0,0,1,1-.36c.2,0,.81.22,1.71.45a8.23,8.23,0,0,0,5.64-.45,26.22,26.22,0,0,0-4.83-4.74c-.77-.62-1.5-1.18-2.1-1.62-.82-.65-.27-2.14-.27-2.14a29.8,29.8,0,0,0-10.23-8.67,11.53,11.53,0,0,0-.9-3.6,7,7,0,0,0-1.73-2.63,4.62,4.62,0,0,0-1.37-.59.67.67,0,0,0-.8.37c-.21.43-.45.89-.68,1.29-.36.64-.68,1.14-.68,1.14a10.63,10.63,0,0,1,4.05,3.07,36.82,36.82,0,0,0-4.92-1.6h0a29.84,29.84,0,0,0-6.67-.75,30.21,30.21,0,0,0-8.77,1.3,6.23,6.23,0,0,0,1.11,2.27,22.76,22.76,0,0,1-3.16-1.28l-.32-.15h0c-4.48-2.15-10.22-5.68-10.87-6.08a41.42,41.42,0,0,0-3.71,3,49.48,49.48,0,0,0,2.33,7.67,13.4,13.4,0,0,1,2.81-3.89,43.12,43.12,0,0,0-2,14h0a24.88,24.88,0,0,1-4-.67,25.35,25.35,0,0,1-3.38-1.08l-.35-.15a29.6,29.6,0,0,0-7.87,7.67A39.79,39.79,0,0,0,144,177a38.73,38.73,0,0,0,11.8-1.82h-.16c-3-.15-10.78-1.62-12.39-13.13a16.81,16.81,0,0,0,3.52,1.26s-2.5-8.49,4.86-13.72c0,0-10.86,2.6-16.84,11.62.76-6.77,5.52-12.16,5.52-12.16a21.91,21.91,0,0,0-11.79,6.36c-3.93-2-6-7.79-6-7.79-7.52-6.7-1.78-16.48-1.26-17.32,0,0,.16,5.32,1.54,6.73,0,0,1.48-3.15,6.72-5.31,0,0-3.84,10.64-1,18.51,0,0,6.62-6,22.75-7.94a1,1,0,0,1,0-.17,5.31,5.31,0,0,1,.08-.91,2.74,2.74,0,0,1,0-.28l.12-.47h0a3.8,3.8,0,0,1,.34-.85,5.11,5.11,0,0,1,.72-1,5.38,5.38,0,0,1,4.18-2,20.32,20.32,0,0,0,5.34-.54c-1.26,1.79-4.25,2.31-4.25,2.31,1.48,1.19,4.58.61,4.58.61a8,8,0,0,1-4,2.45,11.61,11.61,0,0,0,6.23-.3h0a7.87,7.87,0,0,0,1.51-.75,7.37,7.37,0,0,0,3.21-4.3,3.85,3.85,0,0,0,.16-1.65,2.63,2.63,0,0,0-.09-.44,1.75,1.75,0,0,0-1.35-1.4H168a2.06,2.06,0,0,0-1,.26,17.23,17.23,0,0,1-2.05-1.36c-.48-.45,0-1,0-1S165.49,130.05,166,129.68Zm-44.6.45h0Zm30,12.19ZM158.14,126s-6.77,3-12.87-5.34l-1.58-1.93a17.7,17.7,0,0,1,7-.52C157.84,119.77,158.14,126,158.14,126Z"/><path class="cls-9" d="M170.6,145.1h0a2.45,2.45,0,0,0,0-.27h0a3.52,3.52,0,0,0-.49-1.36,1.68,1.68,0,0,0-2.15-.77l-1.94.82-.12,0c-.76.31-4.94,1.89-8.07.43l-.38-.2h0c2.46,5.91,7,5.11,8.86,4.47l.85-.35h0a.58.58,0,0,1-.11.18,10.46,10.46,0,0,1-2.65,2.68,8.72,8.72,0,0,0,1.34-.22,6.39,6.39,0,0,0,4.55-3.68A3.56,3.56,0,0,0,170.6,145.1Z"/><path class="cls-12" d="M170.58,144.83a2.63,2.63,0,0,0-2.89-.21c-7.59,3.24-10.22-.74-10.26-.82,2.46,5.91,7,5.11,8.86,4.47l.84-.35h0a.58.58,0,0,1-.11.18,10.46,10.46,0,0,1-2.65,2.68,8.72,8.72,0,0,0,1.34-.22,6.39,6.39,0,0,0,4.55-3.68A3.63,3.63,0,0,0,170.58,144.83Z"/><path class="cls-9" d="M117.56,107.87h0l0,0Z"/><path class="cls-13" d="M120.63,125.7h0a43.12,43.12,0,0,1,2-14l-.11.11a13.71,13.71,0,0,0-2.7,3.78,49.43,49.43,0,0,1-2.33-7.66A39.13,39.13,0,0,0,114,111.6s1,7.8,2.29,9.93A20.73,20.73,0,0,0,120.63,125.7Z"/></g><circle class="cls-14" cx="141.52" cy="138.89" r="87.68"/><circle class="cls-14" cx="142.18" cy="137.35" r="115.15"/><circle class="cls-14" cx="141.52" cy="138.89" r="138.67"/><circle class="cls-15" cx="232.72" cy="64.83" r="7.69"/><path class="cls-9" d="M232.11,67.65a.21.21,0,0,0,.12,0,.15.15,0,0,0,.09,0l1.17-.57a.21.21,0,0,0,.13-.2V64.81a.57.57,0,0,1,.08-.29l1.58-2.64a.21.21,0,0,0,0-.23.24.24,0,0,0-.2-.12h-4.56a.24.24,0,0,0-.2.12.24.24,0,0,0,0,.23l1.58,2.63h0a.55.55,0,0,1,.09.3v2.65A.19.19,0,0,0,232.11,67.65ZM230.93,62h3.77l-1.39,2.3a1.08,1.08,0,0,0-.14.53v1.94l-.72.35V64.81a1.08,1.08,0,0,0-.14-.53h0Z"/><circle class="cls-15" cx="275.79" cy="98.67" r="12.97"/><g class="cls-16"><path class="cls-9" d="M282.81,97.61h-1a.42.42,0,0,1-.38-.28L280.92,96h0a.41.41,0,0,1,.07-.45l.68-.68a.58.58,0,0,0,0-.8l-.78-.78a.59.59,0,0,0-.8,0l-.68.68A.4.4,0,0,1,279,94l-1.36-.56h0a.41.41,0,0,1-.27-.36v-1a.57.57,0,0,0-.57-.57h-1.1a.57.57,0,0,0-.56.57v1a.41.41,0,0,1-.27.36l-1.36.56h0a.4.4,0,0,1-.44-.07l-.68-.68a.59.59,0,0,0-.8,0l-.78.78a.57.57,0,0,0,0,.8l.68.68a.39.39,0,0,1,.06.45l-.56,1.37a.41.41,0,0,1-.37.27h-1a.57.57,0,0,0-.56.57v1.1a.56.56,0,0,0,.56.56h1a.42.42,0,0,1,.37.29l.56,1.34v0a.4.4,0,0,1-.06.45l-.68.67a.57.57,0,0,0,0,.8l.78.78a.57.57,0,0,0,.8,0l.67-.68a.43.43,0,0,1,.45-.06l1.36.56h0a.44.44,0,0,1,.27.37v1a.56.56,0,0,0,.56.56h1.1a.56.56,0,0,0,.57-.56v-1a.44.44,0,0,1,.27-.37l1.36-.55h0a.41.41,0,0,1,.45.06l.68.68a.56.56,0,0,0,.4.17h0a.56.56,0,0,0,.4-.17l.78-.78a.58.58,0,0,0,0-.8l-.68-.67a.42.42,0,0,1-.07-.45l.57-1.37a.41.41,0,0,1,.37-.28h.95a.56.56,0,0,0,.57-.56v-1.1A.57.57,0,0,0,282.81,97.61Zm.24,1.67a.24.24,0,0,1-.24.24h-1a.73.73,0,0,0-.67.49l-.55,1.33a.75.75,0,0,0,.12.82l.68.68a.23.23,0,0,1,.07.17.21.21,0,0,1-.07.17l-.78.79a.24.24,0,0,1-.17.07h0a.21.21,0,0,1-.17-.08l-.68-.67a.73.73,0,0,0-.82-.13l-1.33.55a.75.75,0,0,0-.49.67v1a.25.25,0,0,1-.25.24h-1.1a.24.24,0,0,1-.24-.24v-1a.75.75,0,0,0-.49-.67l-1.33-.55a.73.73,0,0,0-.82.13l-.68.67a.23.23,0,0,1-.34,0l-.78-.78a.23.23,0,0,1,0-.34l.67-.68a.73.73,0,0,0,.13-.82l-.55-1.32a.73.73,0,0,0-.67-.5h-1a.24.24,0,0,1-.24-.24v-1.1a.25.25,0,0,1,.24-.25h1a.74.74,0,0,0,.67-.48l.55-1.34a.74.74,0,0,0-.13-.82l-.67-.67a.24.24,0,0,1,0-.35l.78-.78a.25.25,0,0,1,.34,0l.68.68a.73.73,0,0,0,.82.12l1.33-.55a.72.72,0,0,0,.49-.66v-1a.25.25,0,0,1,.24-.25h1.1a.25.25,0,0,1,.25.25v1a.72.72,0,0,0,.49.66l1.33.55a.73.73,0,0,0,.82-.12l.68-.68a.25.25,0,0,1,.34,0l.78.78a.23.23,0,0,1,.07.17.21.21,0,0,1-.07.17l-.68.68a.75.75,0,0,0-.12.82l.54,1.32a.74.74,0,0,0,.68.5h.95a.25.25,0,0,1,.25.25v1.1Z"/><path class="cls-9" d="M273.07,98.41a.58.58,0,1,0,0,1.16.58.58,0,1,0,0-1.16Zm0,.84a.27.27,0,0,1,0-.53.27.27,0,1,1,0,.53Z"/><path class="cls-9" d="M279.45,98.41A.58.58,0,1,0,280,99,.58.58,0,0,0,279.45,98.41Zm0,.84a.27.27,0,1,1,.26-.26A.27.27,0,0,1,279.45,99.25Z"/><path class="cls-9" d="M276.26,101.17a.68.68,0,0,0-.68.69.67.67,0,0,0,.68.68.68.68,0,0,0,.69-.68A.69.69,0,0,0,276.26,101.17Zm0,1a.37.37,0,0,1-.37-.36.37.37,0,0,1,.74,0A.37.37,0,0,1,276.26,102.22Z"/><path class="cls-9" d="M276.26,96.33a.69.69,0,0,0,.69-.69.68.68,0,0,0-.69-.68.67.67,0,0,0-.68.68A.68.68,0,0,0,276.26,96.33Zm0-1a.37.37,0,0,1,.37.36.37.37,0,0,1-.74,0A.37.37,0,0,1,276.26,95.28Z"/><path class="cls-9" d="M279.45,97.82a3.4,3.4,0,0,0-2-2.24,1.18,1.18,0,0,0-1.17-1.11,1.16,1.16,0,0,0-1.16,1.06,3.35,3.35,0,0,0-2.16,2.3,1.17,1.17,0,0,0,.13,2.33h.07a3.37,3.37,0,0,0,1.95,1.77,1.19,1.19,0,0,0,1.17,1.11,1.18,1.18,0,0,0,1.17-1.16,3.4,3.4,0,0,0,1.83-1.73l.19,0a1.17,1.17,0,1,0,0-2.34Zm-.32.05a1.17,1.17,0,0,0-.78.72H277a.8.8,0,0,0-.67-.65V96.81a1.18,1.18,0,0,0,1-.9A3.1,3.1,0,0,1,279.13,97.87Zm-2.41.86a.48.48,0,0,1-.48.47.48.48,0,1,1,0-1A.48.48,0,0,1,276.72,98.73Zm-.46-3.94a.85.85,0,1,1-.85.85A.85.85,0,0,1,276.26,94.79Zm-1.15,1.07a1.18,1.18,0,0,0,.92.93V98a.81.81,0,0,0-.58.63h-1.28a1.16,1.16,0,0,0-.9-.75A3.1,3.1,0,0,1,275.11,95.86Zm-2,4a.85.85,0,1,1,.85-.85A.85.85,0,0,1,273.07,99.84Zm.39.25a1.17,1.17,0,0,0,.78-1.1v-.08h1.22a.78.78,0,0,0,.57.58v1.22a1.2,1.2,0,0,0-.91.88A3.09,3.09,0,0,1,273.46,100.09Zm2.8,2.62a.85.85,0,1,1,.85-.85A.85.85,0,0,1,276.26,102.71Zm1.12-1.17a1.17,1.17,0,0,0-1-.85V99.51a.79.79,0,0,0,.66-.6h1.27V99a1.18,1.18,0,0,0,.67,1.06A3,3,0,0,1,277.38,101.54Zm2.07-1.7a.85.85,0,1,1,.85-.85A.85.85,0,0,1,279.45,99.84Z"/></g><circle class="cls-15" cx="266.13" cy="200.64" r="8.57"/><circle class="cls-15" cx="205.69" cy="232.94" r="12.75"/><circle class="cls-15" cx="7.91" cy="174.49" r="7.91"/><g class="cls-17"><path class="cls-9" d="M9.08,175.68a.18.18,0,0,0,.09,0,.13.13,0,0,0,0-.18L8,174.3a.13.13,0,0,0-.18,0l-1.16,1.16a.13.13,0,1,0,.18.18l.94-.94v3a.13.13,0,0,0,.26,0v-3l.94.94A.13.13,0,0,0,9.08,175.68Z"/><path class="cls-9" d="M10.38,172.7a1.84,1.84,0,0,0-3.55-.51,1.14,1.14,0,0,0-.37-.05,1.26,1.26,0,0,0-1.26,1.18,1.52,1.52,0,0,0,.37,3H7.15a.13.13,0,0,0,0-.26H5.58a1.26,1.26,0,0,1-.23-2.5l.1,0v-.14a1,1,0,0,1,1-1,.93.93,0,0,1,.4.09l.13.05,0-.14a1.58,1.58,0,0,1,3.1.41v.11l.11,0a1.58,1.58,0,0,1-.12,3.13H8.69a.13.13,0,1,0,0,.26h1.55a1.85,1.85,0,0,0,.14-3.61Z"/></g><circle class="cls-15" cx="63.51" cy="104.38" r="14.72"/><g class="cls-18"><path class="cls-9" d="M58.48,98.89a.9.9,0,0,0-.9.91v8.6a.9.9,0,0,0,.9.91h2.36l2.25,2.26a.89.89,0,0,0,1.28,0l2.24-2.26H69a.9.9,0,0,0,.9-.91V99.8a.9.9,0,0,0-.9-.91Zm0,.59H69a.32.32,0,0,1,.32.32v8.6a.32.32,0,0,1-.32.32H66.49a.27.27,0,0,0-.21.09L64,111.16a.31.31,0,0,1-.45,0l-2.33-2.35a.25.25,0,0,0-.2-.09H58.48a.32.32,0,0,1-.32-.32V99.8A.32.32,0,0,1,58.48,99.48Z"/><path class="cls-9" d="M63.3,105.39a.42.42,0,0,0,.83,0v-4a.42.42,0,0,0-.83,0Z"/><path class="cls-9" d="M63.31,107.7a.56.56,0,0,0,.81,0,.58.58,0,0,0,0-.81.56.56,0,0,0-.81,0A.58.58,0,0,0,63.31,107.7Z"/></g><circle class="cls-15" cx="21.54" cy="65.93" r="11.43"/><g class="cls-19"><path class="cls-9" d="M21.32,61.82a5.51,5.51,0,0,0-3.71,1.4.21.21,0,0,0-.09.18.26.26,0,0,0,.06.19.28.28,0,0,0,.19.09.23.23,0,0,0,.19-.07,5,5,0,0,1,3.36-1.26A4.69,4.69,0,1,1,16.4,67a4.54,4.54,0,0,1,.84-2.62.36.36,0,0,0,0-.09.21.21,0,0,0,0-.11.19.19,0,0,0,0-.1.27.27,0,0,0-.08-.07.15.15,0,0,0-.09,0H17l-.1,0a.27.27,0,0,0-.08.07A5.12,5.12,0,0,0,15.87,67a5.34,5.34,0,0,0,5.45,5.22,5.22,5.22,0,1,0,0-10.43Z"/><path class="cls-9" d="M19.65,61.59H23a.69.69,0,0,0,.51-.22.7.7,0,0,0,.22-.51v-.1A.73.73,0,0,0,23,60H19.65a.74.74,0,0,0-.51.21.71.71,0,0,0-.21.51v.1a.69.69,0,0,0,.21.51A.7.7,0,0,0,19.65,61.59Zm-.19-.83a.19.19,0,0,1,.05-.13.2.2,0,0,1,.14-.06H23a.2.2,0,0,1,.14.06.26.26,0,0,1,.06.13v.1a.2.2,0,0,1-.06.14.24.24,0,0,1-.14,0H19.65a.17.17,0,0,1-.19-.19Z"/><path class="cls-9" d="M25.6,63.49a.68.68,0,0,0,.47.19.6.6,0,0,0,.46-.17.65.65,0,0,0,.16-.21.7.7,0,0,0,0-.25.59.59,0,0,0,0-.26.62.62,0,0,0-.15-.21l-.67-.67a.74.74,0,0,0-.47-.2.65.65,0,0,0-.46.18.51.51,0,0,0-.15.21.54.54,0,0,0-.06.25.56.56,0,0,0,.05.25.6.6,0,0,0,.14.21Zm-.29-1.2a.11.11,0,0,1,.09,0,.12.12,0,0,1,.1,0l.68.67s0,0,0,0a.09.09,0,0,1,0,0,.06.06,0,0,1,0,0s0,0,0,0a.14.14,0,0,1-.1,0,.13.13,0,0,1-.1,0l-.68-.67,0,0v0s0,0,0,0,0,0,0,0Z"/><path class="cls-9" d="M21.33,68.46h0a.93.93,0,0,0,.74-.38.89.89,0,0,0,.18-.38.81.81,0,0,0,0-.41l-.65-4.38a.28.28,0,0,0-.09-.17.27.27,0,0,0-.17-.06.28.28,0,0,0-.18.06.26.26,0,0,0-.09.16l-.74,4.42a.94.94,0,0,0,0,.44,1,1,0,0,0,.21.38,1.16,1.16,0,0,0,.34.24A1,1,0,0,0,21.33,68.46Zm-.44-1,.46-2.78.41,2.74v0a.37.37,0,0,1,0,.18.53.53,0,0,1-.08.17.48.48,0,0,1-.16.12.45.45,0,0,1-.19.05.64.64,0,0,1-.2,0,.52.52,0,0,1-.17-.12.56.56,0,0,1-.09-.17A.41.41,0,0,1,20.89,67.42Z"/></g><g class="cls-20"><path class="cls-9" d="M210.53,227.7v0s0-.05,0-.08h0L208.83,226a.13.13,0,0,0-.1,0h-8.17a.14.14,0,0,0-.14.14V239.4a.13.13,0,0,0,.14.13h9.83a.12.12,0,0,0,.12-.13V227.7Zm-.45-.14h-1.22v-1.21Zm-9.4,11.72V226.17h7.93v1.51a.14.14,0,0,0,.14.14h1.53v11.46Z"/><path class="cls-9" d="M202.39,229.39h6.08a.15.15,0,0,0,.14-.15.15.15,0,0,0-.14-.15h-6.08a.14.14,0,0,0-.13.15A.15.15,0,0,0,202.39,229.39Z"/><path class="cls-9" d="M202.39,230.9h6.08a.15.15,0,0,0,.14-.15.15.15,0,0,0-.14-.15h-6.08a.15.15,0,0,0-.13.15A.14.14,0,0,0,202.39,230.9Z"/><path class="cls-9" d="M208.46,232.12h-6.07a.14.14,0,0,0-.13.15.15.15,0,0,0,.13.15h6.08a.15.15,0,0,0,.14-.15A.15.15,0,0,0,208.46,232.12Z"/><path class="cls-9" d="M208.46,233.63h-6.07a.15.15,0,0,0-.13.15.14.14,0,0,0,.13.15h6.08a.15.15,0,0,0,.14-.15A.16.16,0,0,0,208.46,233.63Z"/><path class="cls-9" d="M208.46,235.14h-6.07a.15.15,0,0,0-.13.15.15.15,0,0,0,.13.16h6.08a.16.16,0,0,0,0-.31Z"/><path class="cls-9" d="M208.46,236.66h-6.07a.14.14,0,0,0-.13.15.15.15,0,0,0,.13.15h6.08a.15.15,0,0,0,.14-.15A.15.15,0,0,0,208.46,236.66Z"/></g><g class="cls-21"><path class="cls-9" d="M262.61,201h.05a.05.05,0,0,0,0,0l0,0a.09.09,0,0,0,0,0,3.6,3.6,0,0,1,.61-2,.7.7,0,0,0,.38,0,.77.77,0,0,0,.52-.53.74.74,0,0,0,0-.39,3.58,3.58,0,0,1,1.89-.65,3.5,3.5,0,0,1,1.95.46,3.56,3.56,0,0,1,1.83,3.38,3.6,3.6,0,0,1-4.26,3.3,3.67,3.67,0,0,1-1.79-.9l1-1,0,0a2.18,2.18,0,0,0,.9.48,2.29,2.29,0,0,0,1,0,2.09,2.09,0,0,0,.91-.44,2.21,2.21,0,0,0,.63-.79.85.85,0,0,0,.56-.25.88.88,0,0,0,.25-.57.83.83,0,0,0-.21-.58.81.81,0,0,0-.54-.29h0a2.2,2.2,0,0,0-3.75-.63,2.18,2.18,0,0,0-.51,1.41.11.11,0,0,0,0,.09.13.13,0,0,0,.1,0,.14.14,0,0,0,.13-.13,1.92,1.92,0,0,1,.44-1.22,1.92,1.92,0,0,1,3.26.46.81.81,0,0,0-.46.29.85.85,0,0,0-.2.51.8.8,0,0,0,.16.52.83.83,0,0,0,.44.32,1.78,1.78,0,0,1-.56.66,1.77,1.77,0,0,1-.79.35,2.13,2.13,0,0,1-.87,0,2,2,0,0,1-.76-.41h0l1.32-1.32a.15.15,0,0,0,0-.09.18.18,0,0,0,0-.1.14.14,0,0,0-.2,0l-2.62,2.62a.21.21,0,0,0,0,.1.2.2,0,0,0,0,.11,3.87,3.87,0,0,0,1.9,1,3.79,3.79,0,0,0,2.16-.13,3.87,3.87,0,0,0,.66-7,3.86,3.86,0,0,0-4.15.13.85.85,0,0,0-.25-.25.73.73,0,0,0-.34-.12.89.89,0,0,0-.36,0,1,1,0,0,0-.3.19,1,1,0,0,0-.19.31,1.1,1.1,0,0,0,0,.36.79.79,0,0,0,.13.33.88.88,0,0,0,.26.25,3.8,3.8,0,0,0-.62,2.1.09.09,0,0,0,0,0l0,0a.05.05,0,0,0,0,0Zm5.16-.08a.6.6,0,0,1,.1-.32.54.54,0,0,1,.26-.21.53.53,0,0,1,.33,0,.67.67,0,0,1,.3.16.57.57,0,0,1,.15.3.47.47,0,0,1,0,.33.54.54,0,0,1-.21.26.6.6,0,0,1-.32.1.58.58,0,0,1-.58-.58Zm-4.28-3.36a.5.5,0,0,1,.29.09.43.43,0,0,1,.19.23.52.52,0,0,1,0,.3.5.5,0,0,1-.41.41.52.52,0,0,1-.3,0,.43.43,0,0,1-.23-.19.5.5,0,0,1-.09-.29.51.51,0,0,1,.52-.52Z"/></g></g></g></svg>